<?xml version="1.0" encoding="UTF-8" standalone="no"?>
<!DOCTYPE svg PUBLIC "-//W3C//DTD SVG 1.1//EN"
 "http://www.w3.org/Graphics/SVG/1.1/DTD/svg11.dtd">
<!-- Generated by graphviz version 2.26.3 (20100126.1600)
 -->
<!-- Title: _anonymous_0 Pages: 1 -->
<svg width="1138pt" height="1475pt"
 viewBox="0.00 0.00 1138.00 1475.00" xmlns="http://www.w3.org/2000/svg" xmlns:xlink="http://www.w3.org/1999/xlink">
<g id="graph1" class="graph" transform="scale(1 1) rotate(0) translate(4 1471)">
<title>_anonymous_0</title>
<polygon fill="white" stroke="white" points="-4,5 -4,-1471 1135,-1471 1135,5 -4,5"/>
<!-- Antonio Mendes -->
<g id="node1" class="node"><title>Antonio Mendes</title>
<a xlink:href="Antonio Mendes.html" xlink:title="Antonio Mendes">
<ellipse fill="aliceblue" stroke="black" cx="277" cy="-72" rx="90.0096" ry="18.3848"/>
<text text-anchor="middle" x="277" y="-68.4" font-family="Times Roman,serif" font-size="14.00">Antonio Mendes</text>
</a>
</g>
<!-- Ponte de S. Joao -->
<g id="node3" class="node"><title>Ponte de S. Joao</title>
<ellipse fill="none" stroke="black" cx="895" cy="-126" rx="91.2168" ry="18.3848"/>
<text text-anchor="middle" x="895" y="-122.4" font-family="Times Roman,serif" font-size="14.00">Ponte de S. Joao</text>
</g>
<!-- Antonio Mendes&#45;&gt;Ponte de S. Joao -->
<g id="edge2" class="edge"><title>Antonio Mendes&#45;&gt;Ponte de S. Joao</title>
<path fill="none" stroke="black" d="M360.025,-79.2546C474.697,-89.2745 680.97,-107.298 801.118,-117.797"/>
<polygon fill="black" stroke="black" points="801.133,-121.311 811.399,-118.695 801.742,-114.338 801.133,-121.311"/>
<text text-anchor="middle" x="607" y="-109.4" font-family="Times Roman,serif" font-size="14.00">Fez</text>
</g>
<!-- Musical da D. Josefa -->
<g id="node5" class="node"><title>Musical da D. Josefa</title>
<ellipse fill="none" stroke="black" cx="895" cy="-72" rx="108.187" ry="18.3848"/>
<text text-anchor="middle" x="895" y="-68.4" font-family="Times Roman,serif" font-size="14.00">Musical da D. Josefa</text>
</g>
<!-- Antonio Mendes&#45;&gt;Musical da D. Josefa -->
<g id="edge4" class="edge"><title>Antonio Mendes&#45;&gt;Musical da D. Josefa</title>
<path fill="none" stroke="black" d="M367.524,-72C475.761,-72 657.221,-72 776.528,-72"/>
<polygon fill="black" stroke="black" points="776.798,-75.5001 786.798,-72 776.798,-68.5001 776.798,-75.5001"/>
<text text-anchor="middle" x="607" y="-77.4" font-family="Times Roman,serif" font-size="14.00">Participou</text>
</g>
<!-- Opera S. Luis -->
<g id="node7" class="node"><title>Opera S. Luis</title>
<ellipse fill="none" stroke="black" cx="895" cy="-18" rx="77.0746" ry="18.3848"/>
<text text-anchor="middle" x="895" y="-14.4" font-family="Times Roman,serif" font-size="14.00">Opera S. Luis</text>
</g>
<!-- Antonio Mendes&#45;&gt;Opera S. Luis -->
<g id="edge6" class="edge"><title>Antonio Mendes&#45;&gt;Opera S. Luis</title>
<path fill="none" stroke="black" d="M360.025,-64.7454C478.375,-54.4041 694.297,-35.5371 812.408,-25.2167"/>
<polygon fill="black" stroke="black" points="812.824,-28.6938 822.482,-24.3366 812.215,-21.7204 812.824,-28.6938"/>
<text text-anchor="middle" x="607" y="-50.4" font-family="Times Roman,serif" font-size="14.00">Participou</text>
</g>
<!-- Jose Castro -->
<g id="node8" class="node"><title>Jose Castro</title>
<a xlink:href="Jose Castro.html" xlink:title="Jose Castro">
<ellipse fill="aliceblue" stroke="black" cx="277" cy="-261" rx="65.9683" ry="18.3848"/>
<text text-anchor="middle" x="277" y="-257.4" font-family="Times Roman,serif" font-size="14.00">Jose Castro</text>
</a>
</g>
<!-- A vida do cais -->
<g id="node10" class="node"><title>A vida do cais</title>
<a xlink:href="A vida do cais.html" xlink:title="A vida do cais">
<ellipse fill="lawngreen" stroke="black" cx="895" cy="-342" rx="77.7817" ry="18.3848"/>
<text text-anchor="middle" x="895" y="-338.4" font-family="Times Roman,serif" font-size="14.00">A vida do cais</text>
</a>
</g>
<!-- Jose Castro&#45;&gt;A vida do cais -->
<g id="edge8" class="edge"><title>Jose Castro&#45;&gt;A vida do cais</title>
<path fill="none" stroke="black" d="M335.335,-269.7C410.371,-280.781 544.768,-300.259 660,-315 711.22,-321.552 768.819,-328.182 814.172,-333.232"/>
<polygon fill="black" stroke="black" points="813.919,-336.725 824.245,-334.35 814.692,-329.768 813.919,-336.725"/>
<text text-anchor="middle" x="607" y="-317.4" font-family="Times Roman,serif" font-size="14.00">Fez</text>
</g>
<!-- Portugal Renascentista -->
<g id="node12" class="node"><title>Portugal Renascentista</title>
<a xlink:href="Portugal Renascentista.html" xlink:title="Portugal Renascentista">
<ellipse fill="lawngreen" stroke="black" cx="895" cy="-288" rx="123.243" ry="18.3848"/>
<text text-anchor="middle" x="895" y="-284.4" font-family="Times Roman,serif" font-size="14.00">Portugal Renascentista</text>
</a>
</g>
<!-- Jose Castro&#45;&gt;Portugal Renascentista -->
<g id="edge10" class="edge"><title>Jose Castro&#45;&gt;Portugal Renascentista</title>
<path fill="none" stroke="black" d="M342.844,-263.877C443.378,-268.269 637.054,-276.73 766.191,-282.372"/>
<polygon fill="black" stroke="black" points="766.394,-285.885 776.538,-282.824 766.7,-278.891 766.394,-285.885"/>
<text text-anchor="middle" x="607" y="-282.4" font-family="Times Roman,serif" font-size="14.00">Fez</text>
</g>
<!-- O Papagaio de S. Jorge do Campo -->
<g id="node14" class="node"><title>O Papagaio de S. Jorge do Campo</title>
<a xlink:href="O Papagaio de S. Jorge do Campo.html" xlink:title="O Papagaio de S. Jorge do Campo">
<ellipse fill="lawngreen" stroke="black" cx="895" cy="-234" rx="173.241" ry="18.3848"/>
<text text-anchor="middle" x="895" y="-230.4" font-family="Times Roman,serif" font-size="14.00">O Papagaio de S. Jorge do Campo</text>
</a>
</g>
<!-- Jose Castro&#45;&gt;O Papagaio de S. Jorge do Campo -->
<g id="edge12" class="edge"><title>Jose Castro&#45;&gt;O Papagaio de S. Jorge do Campo</title>
<path fill="none" stroke="black" d="M342.844,-258.123C433.234,-254.174 598.917,-246.936 725.29,-241.414"/>
<polygon fill="black" stroke="black" points="725.631,-244.903 735.469,-240.97 725.325,-237.91 725.631,-244.903"/>
<text text-anchor="middle" x="607" y="-253.4" font-family="Times Roman,serif" font-size="14.00">Fez</text>
</g>
<!-- Sarua Museu Sul Americano do Rio de Janeiro -->
<g id="node16" class="node"><title>Sarua Museu Sul Americano do Rio de Janeiro</title>
<ellipse fill="none" stroke="black" cx="895" cy="-180" rx="234.052" ry="18.3848"/>
<text text-anchor="middle" x="895" y="-176.4" font-family="Times Roman,serif" font-size="14.00">Sarua Museu Sul Americano do Rio de Janeiro</text>
</g>
<!-- Jose Castro&#45;&gt;Sarua Museu Sul Americano do Rio de Janeiro -->
<g id="edge14" class="edge"><title>Jose Castro&#45;&gt;Sarua Museu Sul Americano do Rio de Janeiro</title>
<path fill="none" stroke="black" d="M335.335,-252.3C410.371,-241.219 544.768,-221.741 660,-207 689.37,-203.243 720.837,-199.461 750.89,-195.965"/>
<polygon fill="black" stroke="black" points="751.491,-199.419 761.022,-194.791 750.686,-192.465 751.491,-199.419"/>
<text text-anchor="middle" x="607" y="-224.4" font-family="Times Roman,serif" font-size="14.00">Participou</text>
</g>
<!-- Ana Josefa Tralhao -->
<g id="node17" class="node"><title>Ana Josefa Tralhao</title>
<a xlink:href="Ana Josefa Tralhao.html" xlink:title="Ana Josefa Tralhao">
<ellipse fill="aliceblue" stroke="black" cx="277" cy="-423" rx="101.116" ry="18.3848"/>
<text text-anchor="middle" x="277" y="-419.4" font-family="Times Roman,serif" font-size="14.00">Ana Josefa Tralhao</text>
</a>
</g>
<!-- Pensao do Guarau -->
<g id="node19" class="node"><title>Pensao do Guarau</title>
<ellipse fill="none" stroke="black" cx="895" cy="-450" rx="101.116" ry="18.3848"/>
<text text-anchor="middle" x="895" y="-446.4" font-family="Times Roman,serif" font-size="14.00">Pensao do Guarau</text>
</g>
<!-- Ana Josefa Tralhao&#45;&gt;Pensao do Guarau -->
<g id="edge16" class="edge"><title>Ana Josefa Tralhao&#45;&gt;Pensao do Guarau</title>
<path fill="none" stroke="black" d="M375.265,-427.293C487.417,-432.193 670.308,-440.183 786.545,-445.262"/>
<polygon fill="black" stroke="black" points="786.741,-448.773 796.884,-445.713 787.046,-441.78 786.741,-448.773"/>
<text text-anchor="middle" x="607" y="-443.4" font-family="Times Roman,serif" font-size="14.00">Fez</text>
</g>
<!-- O Festa do Povo -->
<g id="node21" class="node"><title>O Festa do Povo</title>
<a xlink:href="O Festa do Povo.html" xlink:title="O Festa do Povo">
<ellipse fill="gold" stroke="black" cx="895" cy="-396" rx="90.0096" ry="18.3848"/>
<text text-anchor="middle" x="895" y="-392.4" font-family="Times Roman,serif" font-size="14.00">O Festa do Povo</text>
</a>
</g>
<!-- Ana Josefa Tralhao&#45;&gt;O Festa do Povo -->
<g id="edge18" class="edge"><title>Ana Josefa Tralhao&#45;&gt;O Festa do Povo</title>
<path fill="none" stroke="black" d="M375.265,-418.707C490.475,-413.673 680.334,-405.379 795.902,-400.33"/>
<polygon fill="black" stroke="black" points="796.321,-403.815 806.159,-399.881 796.015,-396.821 796.321,-403.815"/>
<text text-anchor="middle" x="607" y="-414.4" font-family="Times Roman,serif" font-size="14.00">Participou</text>
</g>
<!-- Felix Antunes -->
<g id="node22" class="node"><title>Felix Antunes</title>
<a xlink:href="Felix Antunes.html" xlink:title="Felix Antunes">
<ellipse fill="aliceblue" stroke="black" cx="277" cy="-504" rx="77.7817" ry="18.3848"/>
<text text-anchor="middle" x="277" y="-500.4" font-family="Times Roman,serif" font-size="14.00">Felix Antunes</text>
</a>
</g>
<!-- Igreja Nova Brasil -->
<g id="node24" class="node"><title>Igreja Nova Brasil</title>
<ellipse fill="none" stroke="black" cx="895" cy="-504" rx="97.0803" ry="18.3848"/>
<text text-anchor="middle" x="895" y="-500.4" font-family="Times Roman,serif" font-size="14.00">Igreja Nova Brasil</text>
</g>
<!-- Felix Antunes&#45;&gt;Igreja Nova Brasil -->
<g id="edge20" class="edge"><title>Felix Antunes&#45;&gt;Igreja Nova Brasil</title>
<path fill="none" stroke="black" d="M355.27,-504C464.655,-504 663.664,-504 787.064,-504"/>
<polygon fill="black" stroke="black" points="787.288,-507.5 797.288,-504 787.288,-500.5 787.288,-507.5"/>
<text text-anchor="middle" x="607" y="-509.4" font-family="Times Roman,serif" font-size="14.00">Participou</text>
</g>
<!-- Joao Arantes -->
<g id="node25" class="node"><title>Joao Arantes</title>
<a xlink:href="Joao Arantes.html" xlink:title="Joao Arantes">
<ellipse fill="aliceblue" stroke="black" cx="277" cy="-558" rx="73.0388" ry="18.3848"/>
<text text-anchor="middle" x="277" y="-554.4" font-family="Times Roman,serif" font-size="14.00">Joao Arantes</text>
</a>
</g>
<!-- Festa do Povo -->
<g id="node27" class="node"><title>Festa do Povo</title>
<a xlink:href="Festa do Povo.html" xlink:title="Festa do Povo">
<ellipse fill="gold" stroke="black" cx="895" cy="-612" rx="79.196" ry="18.3848"/>
<text text-anchor="middle" x="895" y="-608.4" font-family="Times Roman,serif" font-size="14.00">Festa do Povo</text>
</a>
</g>
<!-- Joao Arantes&#45;&gt;Festa do Povo -->
<g id="edge22" class="edge"><title>Joao Arantes&#45;&gt;Festa do Povo</title>
<path fill="none" stroke="black" d="M346.392,-564.063C460.637,-574.046 687.914,-593.905 811.041,-604.664"/>
<polygon fill="black" stroke="black" points="810.906,-608.165 821.173,-605.549 811.516,-601.192 810.906,-608.165"/>
<text text-anchor="middle" x="607" y="-594.4" font-family="Times Roman,serif" font-size="14.00">Fez</text>
</g>
<!-- Igreja Jesuita de Sao Paulo -->
<g id="node29" class="node"><title>Igreja Jesuita de Sao Paulo</title>
<ellipse fill="none" stroke="black" cx="895" cy="-558" rx="140.922" ry="18.3848"/>
<text text-anchor="middle" x="895" y="-554.4" font-family="Times Roman,serif" font-size="14.00">Igreja Jesuita de Sao Paulo</text>
</g>
<!-- Joao Arantes&#45;&gt;Igreja Jesuita de Sao Paulo -->
<g id="edge24" class="edge"><title>Joao Arantes&#45;&gt;Igreja Jesuita de Sao Paulo</title>
<path fill="none" stroke="black" d="M350.625,-558C447.071,-558 618.559,-558 743.348,-558"/>
<polygon fill="black" stroke="black" points="743.381,-561.5 753.381,-558 743.381,-554.5 743.381,-561.5"/>
<text text-anchor="middle" x="607" y="-563.4" font-family="Times Roman,serif" font-size="14.00">Participou</text>
</g>
<!-- Manuel Soares -->
<g id="node30" class="node"><title>Manuel Soares</title>
<a xlink:href="Manuel Soares.html" xlink:title="Manuel Soares">
<ellipse fill="aliceblue" stroke="black" cx="277" cy="-612" rx="82.939" ry="18.3848"/>
<text text-anchor="middle" x="277" y="-608.4" font-family="Times Roman,serif" font-size="14.00">Manuel Soares</text>
</a>
</g>
<!-- Jose Florencio Soares Castro -->
<g id="node31" class="node"><title>Jose Florencio Soares Castro</title>
<a xlink:href="Jose Florencio Soares Castro.html" xlink:title="Jose Florencio Soares Castro">
<ellipse fill="aliceblue" stroke="black" cx="277" cy="-666" rx="149.907" ry="18.3848"/>
<text text-anchor="middle" x="277" y="-662.4" font-family="Times Roman,serif" font-size="14.00">Jose Florencio Soares Castro</text>
</a>
</g>
<!-- Comandante militar da zona territorial centro -->
<g id="node33" class="node"><title>Comandante militar da zona territorial centro</title>
<ellipse fill="none" stroke="black" cx="895" cy="-666" rx="234.759" ry="18.3848"/>
<text text-anchor="middle" x="895" y="-662.4" font-family="Times Roman,serif" font-size="14.00">Comandante militar da zona territorial centro</text>
</g>
<!-- Jose Florencio Soares Castro&#45;&gt;Comandante militar da zona territorial centro -->
<g id="edge26" class="edge"><title>Jose Florencio Soares Castro&#45;&gt;Comandante militar da zona territorial centro</title>
<path fill="none" stroke="black" d="M427.39,-666C494.237,-666 574.673,-666 649.839,-666"/>
<polygon fill="black" stroke="black" points="649.929,-669.5 659.929,-666 649.929,-662.5 649.929,-669.5"/>
<text text-anchor="middle" x="607" y="-671.4" font-family="Times Roman,serif" font-size="14.00">Participou</text>
</g>
<!-- Joao Ferreira -->
<g id="node34" class="node"><title>Joao Ferreira</title>
<a xlink:href="Joao Ferreira.html" xlink:title="Joao Ferreira">
<ellipse fill="aliceblue" stroke="black" cx="277" cy="-855" rx="73.0388" ry="18.3848"/>
<text text-anchor="middle" x="277" y="-851.4" font-family="Times Roman,serif" font-size="14.00">Joao Ferreira</text>
</a>
</g>
<!-- Turtulia com as Marias -->
<g id="node36" class="node"><title>Turtulia com as Marias</title>
<a xlink:href="Turtulia com as Marias.html" xlink:title="Turtulia com as Marias">
<ellipse fill="gold" stroke="black" cx="895" cy="-990" rx="120.208" ry="18.3848"/>
<text text-anchor="middle" x="895" y="-986.4" font-family="Times Roman,serif" font-size="14.00">Turtulia com as Marias</text>
</a>
</g>
<!-- Joao Ferreira&#45;&gt;Turtulia com as Marias -->
<g id="edge28" class="edge"><title>Joao Ferreira&#45;&gt;Turtulia com as Marias</title>
<path fill="none" stroke="black" d="M320.103,-869.61C390.429,-892.888 534.604,-938.282 660,-963 698.466,-970.582 740.924,-976.264 779.048,-980.409"/>
<polygon fill="black" stroke="black" points="778.844,-983.907 789.158,-981.483 779.584,-976.946 778.844,-983.907"/>
<text text-anchor="middle" x="607" y="-963.4" font-family="Times Roman,serif" font-size="14.00">Fez</text>
</g>
<!-- A bela encantada -->
<g id="node38" class="node"><title>A bela encantada</title>
<ellipse fill="none" stroke="black" cx="895" cy="-936" rx="96.1665" ry="18.3848"/>
<text text-anchor="middle" x="895" y="-932.4" font-family="Times Roman,serif" font-size="14.00">A bela encantada</text>
</g>
<!-- Joao Ferreira&#45;&gt;A bela encantada -->
<g id="edge30" class="edge"><title>Joao Ferreira&#45;&gt;A bela encantada</title>
<path fill="none" stroke="black" d="M339.962,-864.383C415.801,-875.567 547.1,-894.558 660,-909 706.574,-914.958 758.421,-920.98 801.541,-925.82"/>
<polygon fill="black" stroke="black" points="801.41,-929.327 811.737,-926.96 802.188,-922.37 801.41,-929.327"/>
<text text-anchor="middle" x="607" y="-911.4" font-family="Times Roman,serif" font-size="14.00">Participou</text>
</g>
<!-- Os 3 da vigairada -->
<g id="node40" class="node"><title>Os 3 da vigairada</title>
<a xlink:href="Os 3 da vigairada.html" xlink:title="Os 3 da vigairada">
<ellipse fill="gold" stroke="black" cx="895" cy="-882" rx="96.8736" ry="18.3848"/>
<text text-anchor="middle" x="895" y="-878.4" font-family="Times Roman,serif" font-size="14.00">Os 3 da vigairada</text>
</a>
</g>
<!-- Joao Ferreira&#45;&gt;Os 3 da vigairada -->
<g id="edge32" class="edge"><title>Joao Ferreira&#45;&gt;Os 3 da vigairada</title>
<path fill="none" stroke="black" d="M349.406,-858.163C458.41,-862.926 665.214,-871.961 790.536,-877.436"/>
<polygon fill="black" stroke="black" points="790.391,-880.933 800.535,-877.873 790.697,-873.94 790.391,-880.933"/>
<text text-anchor="middle" x="607" y="-875.4" font-family="Times Roman,serif" font-size="14.00">Participou</text>
</g>
<!-- O mago e a maga -->
<g id="node42" class="node"><title>O mago e a maga</title>
<ellipse fill="none" stroke="black" cx="895" cy="-828" rx="96.8736" ry="18.3848"/>
<text text-anchor="middle" x="895" y="-824.4" font-family="Times Roman,serif" font-size="14.00">O mago e a maga</text>
</g>
<!-- Joao Ferreira&#45;&gt;O mago e a maga -->
<g id="edge34" class="edge"><title>Joao Ferreira&#45;&gt;O mago e a maga</title>
<path fill="none" stroke="black" d="M349.406,-851.837C458.41,-847.074 665.214,-838.039 790.536,-832.564"/>
<polygon fill="black" stroke="black" points="790.697,-836.06 800.535,-832.127 790.391,-829.067 790.697,-836.06"/>
<text text-anchor="middle" x="607" y="-846.4" font-family="Times Roman,serif" font-size="14.00">Participou</text>
</g>
<!-- A menina perdida do bosque -->
<g id="node44" class="node"><title>A menina perdida do bosque</title>
<ellipse fill="none" stroke="black" cx="895" cy="-774" rx="149.907" ry="18.3848"/>
<text text-anchor="middle" x="895" y="-770.4" font-family="Times Roman,serif" font-size="14.00">A menina perdida do bosque</text>
</g>
<!-- Joao Ferreira&#45;&gt;A menina perdida do bosque -->
<g id="edge36" class="edge"><title>Joao Ferreira&#45;&gt;A menina perdida do bosque</title>
<path fill="none" stroke="black" d="M339.962,-845.617C415.801,-834.433 547.1,-815.442 660,-801 696.955,-796.273 737.23,-791.505 773.831,-787.319"/>
<polygon fill="black" stroke="black" points="774.512,-790.765 784.052,-786.155 773.72,-783.81 774.512,-790.765"/>
<text text-anchor="middle" x="607" y="-817.4" font-family="Times Roman,serif" font-size="14.00">Participou</text>
</g>
<!-- O crime da fereira Amanda -->
<g id="node46" class="node"><title>O crime da fereira Amanda</title>
<ellipse fill="none" stroke="black" cx="895" cy="-720" rx="142.128" ry="18.3848"/>
<text text-anchor="middle" x="895" y="-716.4" font-family="Times Roman,serif" font-size="14.00">O crime da fereira Amanda</text>
</g>
<!-- Joao Ferreira&#45;&gt;O crime da fereira Amanda -->
<g id="edge38" class="edge"><title>Joao Ferreira&#45;&gt;O crime da fereira Amanda</title>
<path fill="none" stroke="black" d="M320.103,-840.39C390.429,-817.112 534.604,-771.718 660,-747 694.105,-740.277 731.348,-735.049 765.925,-731.061"/>
<polygon fill="black" stroke="black" points="766.537,-734.514 776.082,-729.916 765.752,-727.558 766.537,-734.514"/>
<text text-anchor="middle" x="607" y="-770.4" font-family="Times Roman,serif" font-size="14.00">Participou</text>
</g>
<!-- Francisco Martins -->
<g id="node47" class="node"><title>Francisco Martins</title>
<a xlink:href="Francisco Martins.html" xlink:title="Francisco Martins">
<ellipse fill="aliceblue" stroke="black" cx="277" cy="-1071" rx="96.1665" ry="18.3848"/>
<text text-anchor="middle" x="277" y="-1067.4" font-family="Times Roman,serif" font-size="14.00">Francisco Martins</text>
</a>
</g>
<!-- Capitao -->
<g id="node49" class="node"><title>Capitao</title>
<ellipse fill="none" stroke="black" cx="895" cy="-1098" rx="48.7904" ry="18.3848"/>
<text text-anchor="middle" x="895" y="-1094.4" font-family="Times Roman,serif" font-size="14.00">Capitao</text>
</g>
<!-- Francisco Martins&#45;&gt;Capitao -->
<g id="edge40" class="edge"><title>Francisco Martins&#45;&gt;Capitao</title>
<path fill="none" stroke="black" d="M370.525,-1075.09C499.645,-1080.73 728.719,-1090.74 836.218,-1095.43"/>
<polygon fill="black" stroke="black" points="836.091,-1098.93 846.234,-1095.87 836.396,-1091.94 836.091,-1098.93"/>
<text text-anchor="middle" x="607" y="-1091.4" font-family="Times Roman,serif" font-size="14.00">Participou</text>
</g>
<!-- Espedicao ao Sul do Brasil -->
<g id="node51" class="node"><title>Espedicao ao Sul do Brasil</title>
<ellipse fill="none" stroke="black" cx="895" cy="-1044" rx="137.886" ry="18.3848"/>
<text text-anchor="middle" x="895" y="-1040.4" font-family="Times Roman,serif" font-size="14.00">Espedicao ao Sul do Brasil</text>
</g>
<!-- Francisco Martins&#45;&gt;Espedicao ao Sul do Brasil -->
<g id="edge42" class="edge"><title>Francisco Martins&#45;&gt;Espedicao ao Sul do Brasil</title>
<path fill="none" stroke="black" d="M370.525,-1066.91C472.33,-1062.47 636.272,-1055.3 753.77,-1050.17"/>
<polygon fill="black" stroke="black" points="754.085,-1053.66 763.922,-1049.73 753.779,-1046.67 754.085,-1053.66"/>
<text text-anchor="middle" x="607" y="-1062.4" font-family="Times Roman,serif" font-size="14.00">Participou</text>
</g>
<!-- Joaquina de Sampaio -->
<g id="node52" class="node"><title>Joaquina de Sampaio</title>
<a xlink:href="Joaquina de Sampaio.html" xlink:title="Joaquina de Sampaio">
<ellipse fill="aliceblue" stroke="black" cx="277" cy="-1152" rx="113.137" ry="18.3848"/>
<text text-anchor="middle" x="277" y="-1148.4" font-family="Times Roman,serif" font-size="14.00">Joaquina de Sampaio</text>
</a>
</g>
<!-- Jaime Marta dos Campos Sousa -->
<g id="node53" class="node"><title>Jaime Marta dos Campos Sousa</title>
<a xlink:href="Jaime Marta dos Campos Sousa.html" xlink:title="Jaime Marta dos Campos Sousa">
<ellipse fill="aliceblue" stroke="black" cx="277" cy="-1233" rx="162.842" ry="18.3848"/>
<text text-anchor="middle" x="277" y="-1229.4" font-family="Times Roman,serif" font-size="14.00">Jaime Marta dos Campos Sousa</text>
</a>
</g>
<!-- Jardins Proibidos -->
<g id="node55" class="node"><title>Jardins Proibidos</title>
<ellipse fill="none" stroke="black" cx="895" cy="-1314" rx="91.9239" ry="18.3848"/>
<text text-anchor="middle" x="895" y="-1310.4" font-family="Times Roman,serif" font-size="14.00">Jardins Proibidos</text>
</g>
<!-- Jaime Marta dos Campos Sousa&#45;&gt;Jardins Proibidos -->
<g id="edge44" class="edge"><title>Jaime Marta dos Campos Sousa&#45;&gt;Jardins Proibidos</title>
<path fill="none" stroke="black" d="M435.973,-1237.28C475.184,-1241.38 516.635,-1248.35 554,-1260 562.737,-1262.72 563.4,-1266.87 572,-1270 609.433,-1283.62 620.629,-1280.94 660,-1287 706.694,-1294.18 758.877,-1300.36 802.186,-1304.99"/>
<polygon fill="black" stroke="black" points="801.826,-1308.47 812.139,-1306.04 802.562,-1301.51 801.826,-1308.47"/>
<text text-anchor="middle" x="607" y="-1289.4" font-family="Times Roman,serif" font-size="14.00">Fez</text>
</g>
<!-- Amor o vento levou -->
<g id="node57" class="node"><title>Amor o vento levou</title>
<ellipse fill="none" stroke="black" cx="895" cy="-1260" rx="106.98" ry="18.3848"/>
<text text-anchor="middle" x="895" y="-1256.4" font-family="Times Roman,serif" font-size="14.00">Amor o vento levou</text>
</g>
<!-- Jaime Marta dos Campos Sousa&#45;&gt;Amor o vento levou -->
<g id="edge46" class="edge"><title>Jaime Marta dos Campos Sousa&#45;&gt;Amor o vento levou</title>
<path fill="none" stroke="black" d="M428.971,-1239.64C537.639,-1244.39 681.595,-1250.68 780.602,-1255"/>
<polygon fill="black" stroke="black" points="780.497,-1258.5 790.641,-1255.44 780.803,-1251.51 780.497,-1258.5"/>
<text text-anchor="middle" x="607" y="-1253.4" font-family="Times Roman,serif" font-size="14.00">Fez</text>
</g>
<!-- As obras do Tobias Morais -->
<g id="node59" class="node"><title>As obras do Tobias Morais</title>
<ellipse fill="none" stroke="black" cx="895" cy="-1206" rx="135.765" ry="18.3848"/>
<text text-anchor="middle" x="895" y="-1202.4" font-family="Times Roman,serif" font-size="14.00">As obras do Tobias Morais</text>
</g>
<!-- Jaime Marta dos Campos Sousa&#45;&gt;As obras do Tobias Morais -->
<g id="edge48" class="edge"><title>Jaime Marta dos Campos Sousa&#45;&gt;As obras do Tobias Morais</title>
<path fill="none" stroke="black" d="M428.971,-1226.36C528.813,-1222 658.445,-1216.33 755.633,-1212.09"/>
<polygon fill="black" stroke="black" points="755.989,-1215.58 765.827,-1211.64 755.683,-1208.58 755.989,-1215.58"/>
<text text-anchor="middle" x="607" y="-1224.4" font-family="Times Roman,serif" font-size="14.00">Fez</text>
</g>
<!-- Jornal Novo Sao Paulo -->
<g id="node61" class="node"><title>Jornal Novo Sao Paulo</title>
<ellipse fill="none" stroke="black" cx="895" cy="-1152" rx="118.794" ry="18.3848"/>
<text text-anchor="middle" x="895" y="-1148.4" font-family="Times Roman,serif" font-size="14.00">Jornal Novo Sao Paulo</text>
</g>
<!-- Jaime Marta dos Campos Sousa&#45;&gt;Jornal Novo Sao Paulo -->
<g id="edge50" class="edge"><title>Jaime Marta dos Campos Sousa&#45;&gt;Jornal Novo Sao Paulo</title>
<path fill="none" stroke="black" d="M374.507,-1218.55C451.855,-1207.25 562.752,-1191.44 660,-1179 701.871,-1173.64 748.004,-1168.24 788.227,-1163.68"/>
<polygon fill="black" stroke="black" points="788.775,-1167.14 798.319,-1162.54 787.99,-1160.19 788.775,-1167.14"/>
<text text-anchor="middle" x="607" y="-1195.4" font-family="Times Roman,serif" font-size="14.00">Participou</text>
</g>
<!-- A Gente da minha terra -->
<g id="node62" class="node"><title>A Gente da minha terra</title>
<a xlink:href="A Gente da minha terra.html" xlink:title="A Gente da minha terra">
<ellipse fill="lawngreen" stroke="black" cx="277" cy="-1287" rx="127.986" ry="18.3848"/>
<text text-anchor="middle" x="277" y="-1283.4" font-family="Times Roman,serif" font-size="14.00">A Gente da minha terra</text>
</a>
</g>
<!-- Sarau Cultural Museu Sul Americano do Rio de Janeiro -->
<g id="node63" class="node"><title>Sarau Cultural Museu Sul Americano do Rio de Janeiro</title>
<a xlink:href="Sarau Cultural Museu Sul Americano do Rio de Janeiro.html" xlink:title="Sarau Cultural Museu Sul Americano do Rio de Janeiro">
<ellipse fill="gold" stroke="black" cx="277" cy="-1341" rx="275.979" ry="18.3848"/>
<text text-anchor="middle" x="277" y="-1337.4" font-family="Times Roman,serif" font-size="14.00">Sarau Cultural Museu Sul Americano do Rio de Janeiro</text>
</a>
</g>
<!-- Expedicao ao Sul do Brasil -->
<g id="node64" class="node"><title>Expedicao ao Sul do Brasil</title>
<a xlink:href="Expedicao ao Sul do Brasil.html" xlink:title="Expedicao ao Sul do Brasil">
<ellipse fill="gold" stroke="black" cx="277" cy="-1395" rx="138.801" ry="18.3848"/>
<text text-anchor="middle" x="277" y="-1391.4" font-family="Times Roman,serif" font-size="14.00">Expedicao ao Sul do Brasil</text>
</a>
</g>
<!-- Passeio cultural a Amazonia -->
<g id="node65" class="node"><title>Passeio cultural a Amazonia</title>
<a xlink:href="Passeio cultural a Amazonia.html" xlink:title="Passeio cultural a Amazonia">
<ellipse fill="gold" stroke="black" cx="277" cy="-1449" rx="147.785" ry="18.3848"/>
<text text-anchor="middle" x="277" y="-1445.4" font-family="Times Roman,serif" font-size="14.00">Passeio cultural a Amazonia</text>
</a>
</g>
</g>
</svg>
